<?xml version="1.0" encoding="utf-8"?>
<!-- Generator: Adobe Illustrator 15.0.2, SVG Export Plug-In . SVG Version: 6.00 Build 0)  -->
<!DOCTYPE svg PUBLIC "-//W3C//DTD SVG 1.1//EN" "http://www.w3.org/Graphics/SVG/1.1/DTD/svg11.dtd">
<svg version="1.1" id="Layer_1" xmlns="http://www.w3.org/2000/svg" xmlns:xlink="http://www.w3.org/1999/xlink" x="0px" y="0px"
	 width="27.409px" height="23.5px" viewBox="0.091 -3.5 27.409 23.5" enable-background="new 0.091 -3.5 27.409 23.5"
	 xml:space="preserve">
<g id="Conversation">
	<path fill="#333333" d="M21.068-1.75H6.522c-2.5,0-4.545,2.062-4.545,4.582v6.415c0,2.52,2.045,4.582,4.545,4.582h8.45l5.042,4.169
		c0.579,0.479,1.054,0.253,1.054-0.503v-3.666c2.501,0,4.546-2.062,4.546-4.582V2.832C25.614,0.312,23.569-1.75,21.068-1.75z
		 M19.355,9.302H8.786c-0.581,0-1.053-0.471-1.053-1.052s0.472-1.053,1.053-1.053h10.569c0.581,0,1.053,0.472,1.053,1.053
		S19.937,9.302,19.355,9.302z M19.355,5.618H8.786c-0.581,0-1.053-0.472-1.053-1.053s0.472-1.053,1.053-1.053h10.569
		c0.581,0,1.053,0.472,1.053,1.053S19.937,5.618,19.355,5.618z"/>
</g>
</svg>
